<svg width="400" height="400" viewBox="0 0 400 400" fill="none" xmlns="http://www.w3.org/2000/svg">
<path d="M0 25.2631C0 11.3107 11.3107 0 25.2632 0H374.737C388.689 0 400 11.3107 400 25.2632V374.737C400 388.689 388.689 400 374.737 400H25.2631C11.3107 400 0 388.689 0 374.737V25.2631Z" fill="black"/>
<path d="M92.9559 199.344C81.758 199.344 72.3049 196.87 64.5966 191.922C56.8882 186.922 51.0549 180.021 47.0966 171.219C43.1382 162.417 41.1591 152.26 41.1591 140.75C41.1591 129.24 43.1382 119.083 47.0966 110.281C51.0549 101.479 56.8882 94.6042 64.5966 89.6562C72.3049 84.6562 81.758 82.1562 92.9559 82.1562C106.029 82.1562 116.706 85.5156 124.987 92.2344C133.268 98.901 138.946 107.859 142.018 119.109L130.3 122.156C127.904 113.25 123.607 106.193 117.409 100.984C111.211 95.776 103.06 93.1719 92.9559 93.1719C84.1539 93.1719 76.8361 95.1771 71.0028 99.1875C65.1695 103.198 60.7684 108.797 57.7997 115.984C54.883 123.12 53.3726 131.375 53.2684 140.75C53.2164 150.125 54.6486 158.38 57.5653 165.516C60.5341 172.651 64.9611 178.25 70.8466 182.312C76.7841 186.323 84.1539 188.328 92.9559 188.328C103.06 188.328 111.211 185.724 117.409 180.516C123.607 175.255 127.904 168.198 130.3 159.344L142.018 162.391C138.946 173.641 133.268 182.625 124.987 189.344C116.706 196.01 106.029 199.344 92.9559 199.344ZM186.678 199.344C178.292 199.344 171.131 197.443 165.193 193.641C159.256 189.839 154.699 184.578 151.522 177.859C148.345 171.141 146.756 163.432 146.756 154.734C146.756 145.88 148.371 138.12 151.6 131.453C154.829 124.786 159.412 119.604 165.35 115.906C171.339 112.156 178.449 110.281 186.678 110.281C195.115 110.281 202.303 112.182 208.24 115.984C214.23 119.734 218.787 124.969 221.912 131.687C225.089 138.354 226.678 146.036 226.678 154.734C226.678 163.589 225.089 171.375 221.912 178.094C218.735 184.76 214.152 189.969 208.162 193.719C202.173 197.469 195.011 199.344 186.678 199.344ZM186.678 188.328C196.053 188.328 203.032 185.229 207.615 179.031C212.199 172.781 214.49 164.682 214.49 154.734C214.49 144.526 212.173 136.401 207.537 130.359C202.954 124.318 196.001 121.297 186.678 121.297C180.376 121.297 175.167 122.729 171.053 125.594C166.99 128.406 163.943 132.339 161.912 137.391C159.933 142.391 158.943 148.172 158.943 154.734C158.943 164.891 161.287 173.042 165.975 179.187C170.662 185.281 177.563 188.328 186.678 188.328ZM236.099 197V112.625H246.412V132.937L244.38 130.281C245.318 127.781 246.542 125.49 248.052 123.406C249.563 121.271 251.203 119.526 252.974 118.172C255.162 116.245 257.714 114.786 260.63 113.797C263.547 112.755 266.49 112.156 269.459 112C272.427 111.792 275.136 112 277.584 112.625V123.406C274.511 122.625 271.151 122.443 267.505 122.859C263.86 123.276 260.5 124.734 257.427 127.234C254.615 129.422 252.505 132.052 251.099 135.125C249.693 138.146 248.755 141.375 248.287 144.812C247.818 148.198 247.584 151.557 247.584 154.891V197H236.099ZM318.769 199.344C310.54 199.344 303.404 197.521 297.363 193.875C291.373 190.229 286.712 185.099 283.378 178.484C280.045 171.87 278.378 164.109 278.378 155.203C278.378 145.984 280.019 138.016 283.3 131.297C286.581 124.578 291.191 119.396 297.128 115.75C303.118 112.104 310.175 110.281 318.3 110.281C326.634 110.281 333.743 112.208 339.628 116.062C345.514 119.865 349.967 125.333 352.988 132.469C356.009 139.604 357.389 148.12 357.128 158.016H345.41V153.953C345.201 143.016 342.831 134.76 338.3 129.187C333.821 123.615 327.259 120.828 318.613 120.828C309.55 120.828 302.597 123.771 297.753 129.656C292.962 135.542 290.566 143.927 290.566 154.812C290.566 165.437 292.962 173.693 297.753 179.578C302.597 185.411 309.446 188.328 318.3 188.328C324.342 188.328 329.602 186.948 334.081 184.187C338.613 181.375 342.18 177.339 344.785 172.078L355.488 176.219C352.154 183.562 347.232 189.266 340.722 193.328C334.264 197.339 326.946 199.344 318.769 199.344ZM286.503 158.016V148.406H350.956V158.016H286.503Z" fill="white"/>
<path d="M88.6108 324.344C80.8504 324.344 74.2879 322.391 68.9233 318.484C63.5588 314.526 59.4963 309.187 56.7358 302.469C53.9754 295.698 52.5952 288.12 52.5952 279.734C52.5952 271.193 53.9754 263.589 56.7358 256.922C59.5483 250.203 63.6629 244.917 69.0796 241.062C74.4963 237.208 81.1629 235.281 89.0796 235.281C96.7879 235.281 103.403 237.234 108.923 241.141C114.444 245.047 118.663 250.359 121.58 257.078C124.548 263.797 126.033 271.349 126.033 279.734C126.033 288.172 124.548 295.75 121.58 302.469C118.611 309.187 114.34 314.526 108.767 318.484C103.194 322.391 96.4754 324.344 88.6108 324.344ZM50.6421 359.5V237.625H60.9546V301.141H62.2046V359.5H50.6421ZM87.439 313.641C93.3244 313.641 98.2202 312.156 102.126 309.187C106.033 306.219 108.949 302.182 110.876 297.078C112.856 291.922 113.845 286.141 113.845 279.734C113.845 273.38 112.882 267.651 110.955 262.547C109.028 257.443 106.085 253.406 102.126 250.437C98.2202 247.469 93.2463 245.984 87.2046 245.984C81.3192 245.984 76.4233 247.417 72.5171 250.281C68.6629 253.146 65.7723 257.13 63.8452 262.234C61.9181 267.286 60.9546 273.12 60.9546 279.734C60.9546 286.245 61.9181 292.078 63.8452 297.234C65.7723 302.339 68.689 306.349 72.5952 309.266C76.5015 312.182 81.4494 313.641 87.439 313.641ZM144.751 221.609V208.719H156.235V221.609H144.751ZM144.751 322V237.625H156.235V322H144.751ZM181.219 322V207.156H192.704V322H181.219ZM251.36 324.344C242.974 324.344 235.813 322.443 229.875 318.641C223.938 314.839 219.381 309.578 216.204 302.859C213.027 296.141 211.438 288.432 211.438 279.734C211.438 270.88 213.053 263.12 216.282 256.453C219.511 249.786 224.094 244.604 230.032 240.906C236.021 237.156 243.131 235.281 251.36 235.281C259.797 235.281 266.985 237.182 272.922 240.984C278.912 244.734 283.469 249.969 286.594 256.687C289.771 263.354 291.36 271.036 291.36 279.734C291.36 288.589 289.771 296.375 286.594 303.094C283.417 309.76 278.834 314.969 272.844 318.719C266.855 322.469 259.693 324.344 251.36 324.344ZM251.36 313.328C260.735 313.328 267.714 310.229 272.297 304.031C276.881 297.781 279.172 289.682 279.172 279.734C279.172 269.526 276.855 261.401 272.219 255.359C267.636 249.318 260.683 246.297 251.36 246.297C245.058 246.297 239.849 247.729 235.735 250.594C231.672 253.406 228.625 257.339 226.594 262.391C224.615 267.391 223.625 273.172 223.625 279.734C223.625 289.891 225.969 298.042 230.657 304.187C235.344 310.281 242.245 313.328 251.36 313.328ZM354.531 322C349.792 322.99 345.104 323.38 340.469 323.172C335.885 322.964 331.771 321.974 328.125 320.203C324.531 318.432 321.797 315.672 319.922 311.922C318.411 308.797 317.578 305.646 317.422 302.469C317.318 299.24 317.266 295.568 317.266 291.453V214.187H328.672V290.984C328.672 294.526 328.698 297.495 328.75 299.891C328.854 302.234 329.401 304.318 330.391 306.141C332.266 309.63 335.234 311.714 339.297 312.391C343.411 313.068 348.49 312.911 354.531 311.922V322ZM299.219 247.469V237.625H354.531V247.469H299.219Z" fill="#00BBFF"/>
</svg>
