<svg width="306" height="79" viewBox="0 0 306 79" fill="none" xmlns="http://www.w3.org/2000/svg">
<path d="M27.42 60.7C21.6867 60.7 16.8467 59.4333 12.9 56.9C8.95333 54.34 5.96667 50.8067 3.94 46.3C1.91333 41.7933 0.9 36.5933 0.9 30.7C0.9 24.8067 1.91333 19.6067 3.94 15.1C5.96667 10.5933 8.95333 7.07333 12.9 4.54C16.8467 1.98 21.6867 0.699999 27.42 0.699999C34.1133 0.699999 39.58 2.42 43.82 5.86C48.06 9.27333 50.9667 13.86 52.54 19.62L46.54 21.18C45.3133 16.62 43.1133 13.0067 39.94 10.34C36.7667 7.67333 32.5933 6.34 27.42 6.34C22.9133 6.34 19.1667 7.36666 16.18 9.42C13.1933 11.4733 10.94 14.34 9.42 18.02C7.92667 21.6733 7.15333 25.9 7.1 30.7C7.07333 35.5 7.80667 39.7267 9.3 43.38C10.82 47.0333 13.0867 49.9 16.1 51.98C19.14 54.0333 22.9133 55.06 27.42 55.06C32.5933 55.06 36.7667 53.7267 39.94 51.06C43.1133 48.3667 45.3133 44.7533 46.54 40.22L52.54 41.78C50.9667 47.54 48.06 52.14 43.82 55.58C39.58 58.9933 34.1133 60.7 27.42 60.7ZM75.4056 60.7C71.1123 60.7 67.4456 59.7267 64.4056 57.78C61.3656 55.8333 59.0323 53.14 57.4056 49.7C55.779 46.26 54.9656 42.3133 54.9656 37.86C54.9656 33.3267 55.7923 29.3533 57.4456 25.94C59.099 22.5267 61.4456 19.8733 64.4856 17.98C67.5523 16.06 71.1923 15.1 75.4056 15.1C79.7256 15.1 83.4056 16.0733 86.4456 18.02C89.5123 19.94 91.8456 22.62 93.4456 26.06C95.0723 29.4733 95.8856 33.4067 95.8856 37.86C95.8856 42.3933 95.0723 46.38 93.4456 49.82C91.819 53.2333 89.4723 55.9 86.4056 57.82C83.339 59.74 79.6723 60.7 75.4056 60.7ZM75.4056 55.06C80.2056 55.06 83.779 53.4733 86.1256 50.3C88.4723 47.1 89.6456 42.9533 89.6456 37.86C89.6456 32.6333 88.459 28.4733 86.0856 25.38C83.739 22.2867 80.179 20.74 75.4056 20.74C72.179 20.74 69.5123 21.4733 67.4056 22.94C65.3256 24.38 63.7656 26.3933 62.7256 28.98C61.7123 31.54 61.2056 34.5 61.2056 37.86C61.2056 43.06 62.4056 47.2333 64.8056 50.38C67.2056 53.5 70.739 55.06 75.4056 55.06ZM100.709 59.5V16.3H105.989V26.7L104.949 25.34C105.429 24.06 106.056 22.8867 106.829 21.82C107.603 20.7267 108.443 19.8333 109.349 19.14C110.469 18.1533 111.776 17.4067 113.269 16.9C114.763 16.3667 116.269 16.06 117.789 15.98C119.309 15.8733 120.696 15.98 121.949 16.3V21.82C120.376 21.42 118.656 21.3267 116.789 21.54C114.923 21.7533 113.203 22.5 111.629 23.78C110.189 24.9 109.109 26.2467 108.389 27.82C107.669 29.3667 107.189 31.02 106.949 32.78C106.709 34.5133 106.589 36.2333 106.589 37.94V59.5H100.709ZM143.036 60.7C138.823 60.7 135.17 59.7667 132.076 57.9C129.01 56.0333 126.623 53.4067 124.916 50.02C123.21 46.6333 122.356 42.66 122.356 38.1C122.356 33.38 123.196 29.3 124.876 25.86C126.556 22.42 128.916 19.7667 131.956 17.9C135.023 16.0333 138.636 15.1 142.796 15.1C147.063 15.1 150.703 16.0867 153.716 18.06C156.73 20.0067 159.01 22.8067 160.556 26.46C162.103 30.1133 162.81 34.4733 162.676 39.54H156.676V37.46C156.57 31.86 155.356 27.6333 153.036 24.78C150.743 21.9267 147.383 20.5 142.956 20.5C138.316 20.5 134.756 22.0067 132.276 25.02C129.823 28.0333 128.596 32.3267 128.596 37.9C128.596 43.34 129.823 47.5667 132.276 50.58C134.756 53.5667 138.263 55.06 142.796 55.06C145.89 55.06 148.583 54.3533 150.876 52.94C153.196 51.5 155.023 49.4333 156.356 46.74L161.836 48.86C160.13 52.62 157.61 55.54 154.276 57.62C150.97 59.6733 147.223 60.7 143.036 60.7ZM126.516 39.54V34.62H159.516V39.54H126.516Z" fill="black"/>
<path d="M185.781 60.7C181.808 60.7 178.448 59.7 175.701 57.7C172.955 55.6733 170.875 52.94 169.461 49.5C168.048 46.0333 167.341 42.1533 167.341 37.86C167.341 33.4867 168.048 29.5933 169.461 26.18C170.901 22.74 173.008 20.0333 175.781 18.06C178.555 16.0867 181.968 15.1 186.021 15.1C189.968 15.1 193.355 16.1 196.181 18.1C199.008 20.1 201.168 22.82 202.661 26.26C204.181 29.7 204.941 33.5667 204.941 37.86C204.941 42.18 204.181 46.06 202.661 49.5C201.141 52.94 198.955 55.6733 196.101 57.7C193.248 59.7 189.808 60.7 185.781 60.7ZM166.341 78.7V16.3H171.621V48.82H172.261V78.7H166.341ZM185.181 55.22C188.195 55.22 190.701 54.46 192.701 52.94C194.701 51.42 196.195 49.3533 197.181 46.74C198.195 44.1 198.701 41.14 198.701 37.86C198.701 34.6067 198.208 31.6733 197.221 29.06C196.235 26.4467 194.728 24.38 192.701 22.86C190.701 21.34 188.155 20.58 185.061 20.58C182.048 20.58 179.541 21.3133 177.541 22.78C175.568 24.2467 174.088 26.2867 173.101 28.9C172.115 31.4867 171.621 34.4733 171.621 37.86C171.621 41.1933 172.115 44.18 173.101 46.82C174.088 49.4333 175.581 51.4867 177.581 52.98C179.581 54.4733 182.115 55.22 185.181 55.22ZM210.525 8.1V1.5H216.405V8.1H210.525ZM210.525 59.5V16.3H216.405V59.5H210.525ZM225.197 59.5V0.699999H231.077V59.5H225.197ZM257.109 60.7C252.815 60.7 249.149 59.7267 246.109 57.78C243.069 55.8333 240.735 53.14 239.109 49.7C237.482 46.26 236.669 42.3133 236.669 37.86C236.669 33.3267 237.495 29.3533 239.149 25.94C240.802 22.5267 243.149 19.8733 246.189 17.98C249.255 16.06 252.895 15.1 257.109 15.1C261.429 15.1 265.109 16.0733 268.149 18.02C271.215 19.94 273.549 22.62 275.149 26.06C276.775 29.4733 277.589 33.4067 277.589 37.86C277.589 42.3933 276.775 46.38 275.149 49.82C273.522 53.2333 271.175 55.9 268.109 57.82C265.042 59.74 261.375 60.7 257.109 60.7ZM257.109 55.06C261.909 55.06 265.482 53.4733 267.829 50.3C270.175 47.1 271.349 42.9533 271.349 37.86C271.349 32.6333 270.162 28.4733 267.789 25.38C265.442 22.2867 261.882 20.74 257.109 20.74C253.882 20.74 251.215 21.4733 249.109 22.94C247.029 24.38 245.469 26.3933 244.429 28.98C243.415 31.54 242.909 34.5 242.909 37.86C242.909 43.06 244.109 47.2333 246.509 50.38C248.909 53.5 252.442 55.06 257.109 55.06ZM305.933 59.5C303.506 60.0067 301.106 60.2067 298.733 60.1C296.386 59.9933 294.279 59.4867 292.413 58.58C290.573 57.6733 289.173 56.26 288.213 54.34C287.439 52.74 287.013 51.1267 286.933 49.5C286.879 47.8467 286.853 45.9667 286.853 43.86V4.3H292.693V43.62C292.693 45.4333 292.706 46.9533 292.733 48.18C292.786 49.38 293.066 50.4467 293.573 51.38C294.533 53.1667 296.053 54.2333 298.133 54.58C300.239 54.9267 302.839 54.8467 305.933 54.34V59.5ZM277.613 21.34V16.3H305.933V21.34H277.613Z" fill="#00BBFF"/>
</svg>
